<?xml version="1.0" encoding="utf-8"?>
<!-- Generator: Adobe Illustrator 26.0.2, SVG Export Plug-In . SVG Version: 6.00 Build 0)  -->
<svg version="1.1" id="Слой_1" xmlns="http://www.w3.org/2000/svg" xmlns:xlink="http://www.w3.org/1999/xlink" x="0px" y="0px"
	 viewBox="0 0 94 27" style="enable-background:new 0 0 94 27;" xml:space="preserve">
<style type="text/css">
	.st0{fill-rule:evenodd;clip-rule:evenodd;fill:#C50440;}
	.st1{fill:none;}
</style>
<g id="Foreground">
	<path class="st0" d="M69.5,17.8c-0.3,4.2,2.7,5,6,5h10.8c5.2,0,6.4-1.6,6.7-5c0.1-0.7,0.7-9.2,0.8-9.4c0.3-4.4-3.8-4.9-5.9-4.9H77
		c-4.8,0-6.4,1.8-6.7,4.9C70.2,9.1,69.5,17.8,69.5,17.8z M75.7,18.9c0.3-2.8,0.7-8.2,0.8-9.3c0.2-1.2,0.6-2.1,3-2.1l8,0
		c-0.3,3-0.8,8.8-0.8,9.3c-0.1,1.3-0.7,2.1-2.6,2.1L75.7,18.9L75.7,18.9z M18.1,17.8c-0.3,4.2,2.7,5,6,5h10.8c5.2,0,6.4-1.6,6.7-5
		c0.1-0.7,0.7-9.2,0.8-9.4c0.3-4.4-3.8-4.9-5.9-4.9H25.6c-4.8,0-6.4,1.8-6.7,4.9C18.8,9.1,18.1,17.8,18.1,17.8z M24.3,18.9
		c0.3-2.8,0.7-8.2,0.8-9.3c0.2-1.2,0.6-2.1,3-2.1l8,0c-0.3,3-0.8,8.8-0.8,9.3c-0.1,1.3-0.7,2.1-2.6,2.1L24.3,18.9L24.3,18.9z
		 M66.5,7.5H53.3c-1.9,0-2.5,1.6-2.5,2.9l-0.7,8.5h8.1c0,0,1.5,0,2.4-0.3c0.9-0.3,2-0.9,2-3.5h-6.5l0.3-3c0.2-0.6,0.6-0.9,1.2-0.9
		h10.3c0,0-0.3,4.8-0.4,5.7c-0.4,4.4-1.7,6-8,6h-9.1c-2.5,0-7,0.4-6.4-6C44,16,44.5,10,44.7,8.5c0.5-3.7,2.3-4.9,6.6-4.9h17.2
		L68.3,6c0,0-0.2,1.5-1.6,1.5L66.5,7.5z M7.9,3.4L6.5,18.9h10.9l-0.9,3c-0.2,0.6-0.6,0.9-1.2,0.9h-3.7H2.5c-0.8-0.1-2.6-1.1-2.4-3
		L1.4,4.3c0-0.4,0.4-0.9,0.8-0.9L7.9,3.4z"/>
	<g>
		<polygon class="st1" points="-13.3,-1.4 100.1,-1.4 100.1,38.7 -13.3,38.7 		"/>
		<path class="st1" d="M43.4,18.6"/>
	</g>
</g>
</svg>
